# xmcd CD database file
#
# Track frame offsets:
#	150
#	24253
#	48038
#	65781
#	83970
#	107983
#	130186
#	132418
#	148360
#	166550
#	208059
#	221569
#
# Disc length: 3205 seconds
#
# Revision: 0
# Processed by: cddbd v1.5.1PL2 Copyright (c) Steve Scherf et al.
# Submitted via: cdripper 1,0,33,916
#
DISCID=b10c830c
DTITLE=Triade - Entropie
DYEAR=2006
DGENRE=Jazz
TTITLE0=Suis des miens encore?
TTITLE1=Naki
TTITLE2=Wanbli
TTITLE3=Defense - DDB
TTITLE4=Defense - Textures
TTITLE5=Defense - Znyck Week
TTITLE6=Degense - DBB
TTITLE7=Musica Riccercata N°7
TTITLE8=Des bras a Glaciere
TTITLE9=Shaab
TTITLE10=Nasdao
TTITLE11=Love Fifteen
EXTD=YEAR: 2006
EXTT0=
EXTT1=
EXTT2=
EXTT3=
EXTT4=
EXTT5=
EXTT6=
EXTT7=
EXTT8=
EXTT9=
EXTT10=
EXTT11=
PLAYORDER=
